<?xml version="1.0" encoding="utf-8"?>
<!-- Generator: Adobe Illustrator 26.5.0, SVG Export Plug-In . SVG Version: 6.00 Build 0)  -->
<svg version="1.1" xmlns="http://www.w3.org/2000/svg" xmlns:xlink="http://www.w3.org/1999/xlink" x="0px" y="0px"
	 viewBox="0 0 274.1 148.33" style="enable-background:new 0 0 274.1 148.33;" xml:space="preserve">
<style type="text/css">
	.st0{enable-background:new    ;}
	.st1{fill:#FFA500;}
	.st2{fill:none;stroke:#000000;stroke-miterlimit:100;}
	.st3{fill:#030303;}
	.st4{fill:#6F6F6F;}
	.st5{fill:#FCA402;}
	.st6{fill:#ABA8A8;}
	.st7{fill:#FDA402;}
	.st8{fill:#A8A5A5;}
	.st9{fill:#F9A306;}
	.st10{fill:#F3A10B;}
	.st11{fill:#F8AD24;}
	.st12{fill:#F5A81B;}
	.st13{fill:#040402;}
	.st14{fill:#060504;}
	.st15{fill:#ACA9A9;}
	.st16{fill:#B1B0B0;}
	.st17{fill:#AAA7A7;}
	.st18{fill:#1C1C1C;}
</style>
<g id="Rectangle_1_00000110439722814055370420000002687703456247582909_" class="st0">
	<g id="Rectangle_1">
		<g>
			<path class="st1" d="M254.52,62.4H19.56C10.42,62.4,3,69.81,3,78.96v49.92c0,9.15,7.41,16.56,16.56,16.56h234.96
				c9.15,0,16.56-7.41,16.56-16.56V78.96C271.08,69.81,263.67,62.4,254.52,62.4z"/>
		</g>
		<g>
			<path class="st2" d="M254.52,62.4H19.56C10.42,62.4,3,69.81,3,78.96v49.92c0,9.15,7.41,16.56,16.56,16.56h234.96
				c9.15,0,16.56-7.41,16.56-16.56V78.96C271.08,69.81,263.67,62.4,254.52,62.4z"/>
		</g>
	</g>
</g>
<g id="Layer_1_xA0_Image_00000147910805861465283210000009177913081032973245_">
	<g>
		<g>
			<path d="M198.74,82.96c0.29,0.15,0.57,0.4,0.87,0.42c7.36,0.59,13.86,6.58,15.52,13.43c0.81,3.31,1,6.6,0.32,9.86
				c-1.32,6.35-5.02,10.89-11.04,13.52c-2.71,1.19-5.56,1.31-8.44,1.31c-5.28,0-9.71-2.01-13.3-5.79c-2.55-2.68-3.95-5.93-4.65-9.58
				c-0.73-3.78-0.27-7.39,0.87-10.95c0.84-2.61,2.38-4.86,4.38-6.76c3.01-2.87,6.52-4.68,10.73-5.05c0.31-0.03,0.6-0.27,0.9-0.42
				C196.18,82.96,197.46,82.96,198.74,82.96z M185.78,102.23c-0.53,6.59,4.82,11.49,11.04,11.46c6.17-0.04,11.07-4.6,11.14-11.27
				c0.07-6.49-5-11.37-11.19-11.37C190.76,91.05,185.26,95.97,185.78,102.23z"/>
			<path d="M31.62,82.96c0.33,0.15,0.66,0.4,1,0.42c3.8,0.29,7.04,1.98,10.14,4.02c0.55,0.36,0.59,0.74,0.24,1.28
				c-1.11,1.7-2.18,3.42-3.13,4.92c-2.34-0.96-4.56-2.04-6.88-2.78c-2.34-0.74-4.81-1.07-7.22-0.19c-1.53,0.56-3.53,3.39-2.05,4.96
				c0.73,0.77,1.84,1.3,2.88,1.66c3.22,1.12,6.51,2.02,9.72,3.17c3.06,1.1,5.71,2.81,6.99,6.01c0.79,1.97,0.8,3.96,0.46,6.08
				c-0.7,4.32-3.59,6.54-7.26,8.06c-1.18,0.49-2.52,0.71-3.81,0.81c-3.28,0.26-6.58,0.36-9.8-0.38c-3.19-0.72-6.27-1.82-9.01-3.68
				c0-0.08,0-0.16,0-0.24c0.28-0.25,0.64-0.44,0.82-0.75c0.87-1.43,1.66-2.92,2.57-4.32c0.21-0.32,0.96-0.7,1.15-0.58
				c1.93,1.25,4.09,1.84,6.25,2.5c2.67,0.82,5.33,1.07,8.05,0.31c1.91-0.54,2.82-1.87,2.97-3.76c0.12-1.56-0.65-2.68-1.99-3.34
				c-1.5-0.73-3.03-1.4-4.61-1.93c-2.61-0.88-5.34-1.44-7.89-2.48c-5.61-2.28-7.86-6.44-5.24-12.7c1.74-4.15,5.49-5.73,9.63-6.58
				c0.5-0.1,0.98-0.3,1.46-0.46C28.59,82.96,30.11,82.96,31.62,82.96z"/>
			<path d="M102.74,83.74c3,0,5.9-0.01,8.81,0.02c0.24,0,0.54,0.29,0.69,0.52c4.02,6.09,8.02,12.2,12.04,18.3
				c1.23,1.87,2.49,3.72,3.75,5.57c0.12,0.18,0.32,0.31,0.7,0.67c0-4.37,0-8.48,0-12.59c0-4.09,0-8.18,0-12.38c2.72,0,5.36,0,8.08,0
				c0,12.36,0,24.71,0,37.14c-3.01,0-6.02,0-9.06,0c-5.5-8.31-11.03-16.66-16.56-25.02c-0.13,0.05-0.25,0.1-0.38,0.15
				c0,8.27,0,16.55,0,24.88c-2.77,0-5.38,0-8.07,0C102.74,108.63,102.74,96.28,102.74,83.74z"/>
			<path d="M253.6,105.8c2.6,5.09,5.12,10.04,7.73,15.16c-2.85,0-5.49,0-8.2,0c-1.88-4.08-3.85-8.21-5.68-12.39
				c-0.44-1.01-0.92-1.35-2-1.29c-1.63,0.1-3.26,0.03-5.05,0.03c0,4.6,0,9.11,0,13.68c-2.76,0-5.37,0-8.05,0
				c0-12.38,0-24.75,0-37.25c0.48,0,0.91,0,1.34,0c4.59,0.02,9.18,0.05,13.77,0.06c5.16,0.01,10.32,3.23,11.75,7.52
				c1.29,3.86,1.1,7.66-1.39,11.04c-0.77,1.05-1.96,1.79-2.99,2.65C254.48,105.31,254.05,105.51,253.6,105.8z M240.33,95.53
				c0,1.31,0.01,2.62,0,3.93c-0.01,0.64,0.24,0.93,0.93,0.91c1.67-0.04,3.36,0.08,5.02-0.08c1.39-0.13,2.86-0.34,4.1-0.92
				c2.04-0.97,2.75-2.88,2.24-5.05c-0.38-1.62-2.21-3.08-4.18-3.22c-2.25-0.16-4.52-0.2-6.77-0.37c-1.08-0.08-1.41,0.34-1.35,1.36
				C240.38,93.22,240.33,94.38,240.33,95.53z"/>
			<path d="M85.77,90.7c-0.44,0-0.83,0-1.22,0c-5.07,0-10.15,0.03-15.22-0.02c-1.01-0.01-1.31,0.3-1.28,1.29
				c0.07,2.18,0.02,4.37,0.02,6.76c5.32,0,10.59,0,15.87,0c0,2.45,0,4.7,0,7.06c-3.41,0-6.75,0-10.09,0c-1.56,0-3.12,0.02-4.67-0.02
				c-0.79-0.02-1.15,0.19-1.13,1.07c0.06,2.26,0.02,4.52,0.02,6.88c5.93,0,11.78,0,17.71,0c0,2.46,0,4.82,0,7.26
				c-8.59,0-17.15,0-25.78,0c0-12.37,0-24.71,0-37.15c8.56,0,17.13,0,25.77,0C85.77,86.08,85.77,88.28,85.77,90.7z"/>
			<path d="M161.71,83.83c0,12.37,0,24.71,0,37.14c-2.65,0-5.3,0-8,0c0-12.35,0-24.7,0-37.14
				C156.33,83.83,158.94,83.83,161.71,83.83z"/>
			<path d="M51.29,121.5c-2.99,0.08-4.27-1.97-4.31-4.23c-0.04-2.45,1.71-4.41,4.43-4.3c2.53,0.1,4.52,1.85,4.37,4.3
				C55.63,119.47,54.43,121.65,51.29,121.5z"/>
			<path d="M145.14,112.98c2.52,0.03,4.5,1.88,4.32,4.3c-0.17,2.35-1.46,4.32-4.59,4.24c-3.08-0.08-4.21-2.16-4.22-4.2
				C140.63,114.66,142.38,112.85,145.14,112.98z"/>
			<path d="M94.15,121.5c-2.62,0-4.61-1.75-4.47-4.14c0.15-2.5,1.55-4.32,4.29-4.4c2.98-0.08,4.51,1.87,4.53,4.33
				C98.52,119.53,97,121.67,94.15,121.5z"/>
			<path d="M223.68,112.98c3.07-0.07,4.38,2.09,4.37,4.34c-0.02,2.36-1.54,4.32-4.47,4.19c-2.53-0.11-4.46-1.74-4.36-4.1
				C219.33,114.92,220.7,112.9,223.68,112.98z"/>
			<path d="M170.37,112.98c3.08-0.03,4.3,2.08,4.31,4.3c0.01,2.2-1.36,4.3-4.47,4.23c-2.99-0.07-4.2-1.95-4.28-4.16
				C165.83,114.94,167.48,112.82,170.37,112.98z"/>
		</g>
	</g>
</g>
<g id="caravan-svgrepo-com_xA0_Image_00000128461378556685046010000006479254732029468050_">
	<g>
		<g>
			<path class="st3" d="M121.8,46.38c-0.13,0.26-0.31,0.52-0.39,0.79c-1.14,3.73-4.04,5.92-8.01,5.93
				c-9.52,0.02-19.04,0.01-28.55,0.01c-0.44,0-0.87,0-1.28,0c-1.67,6.04-5.24,9.23-10.36,9.28c-5.35,0.06-8.85-2.94-10.75-9.28
				c-0.4,0-0.83,0-1.26,0c-7.16,0-14.32-0.02-21.48,0.01c-2.45,0.01-4.75-0.46-6.92-1.6c-0.27-0.14-0.59-0.29-0.89-0.29
				c-4.07-0.02-8.14-0.01-12.35-0.01c0,2.74,0,5.39,0,8.04c0,0.48,0,0.96,0,1.43c0,0.97-0.4,1.67-1.43,1.68
				c-1.04,0.01-1.45-0.67-1.45-1.65c0.01-2.75,0-5.5,0-8.25c0-0.36,0-0.71,0-1.17c-1.12-0.26-2.94,0.35-2.82-1.64
				c0.1-1.65,1.65-1.23,2.71-1.35c0.3-2.31,0.65-2.89,1.67-2.8c0.99,0.09,1.3,0.71,1.35,2.74c3,0,6,0,9.13,0
				c-1.51-1.93-2.75-3.98-2.9-6.34c-0.15-2.31-0.06-4.69,0.28-6.98c1-6.77,2.08-13.52,3.3-20.25C30.6,7.96,36.3,3.21,43.18,3.19
				c23.44-0.05,46.87-0.03,70.31-0.01c4.17,0,7.26,2.67,8.09,6.75c0.03,0.13,0.15,0.24,0.22,0.35c0,0.08,0,0.16,0,0.24
				c-0.08,0.32-0.23,0.64-0.23,0.96c-0.01,11.07-0.01,22.14,0,33.21c0,0.32,0.15,0.65,0.23,0.97
				C121.8,45.91,121.8,46.15,121.8,46.38z M104.53,20.76c-0.34-1.53-1.29-2.47-2.82-2.84c-0.34-0.08-0.67-0.21-1.01-0.22
				c-2.16-0.02-4.31-0.02-6.47,0c-0.34,0-0.67,0.15-1.01,0.23c-1.98,0.53-3.06,2.06-3.06,4.38c-0.01,8.96,0,17.92,0,26.88
				c0,0.31,0.03,0.62,0.04,1.01c4.81,0,9.55,0,14.3,0c0.09-0.31,0.26-0.61,0.26-0.92c0.01-9.13,0.01-18.27,0-27.4
				C104.75,21.51,104.6,21.14,104.53,20.76z M118.89,33.16c0-7.46,0.05-14.79-0.03-22.11c-0.02-2.4-1.7-4.3-4.07-4.83
				C113.77,5.98,112.66,6,111.59,6C88.84,5.99,66.08,5.99,43.33,6c-5.67,0-10.5,4.23-11.3,9.71c-0.54,3.72-1.22,7.43-1.82,11.14
				c-0.34,2.09-0.65,4.18-0.97,6.27c19.45,0,38.78,0,58.2,0c0-0.53,0-0.96,0-1.39c0-3.43-0.03-6.85,0.03-10.28
				c0.05-3.15,2.44-6.02,5.56-6.36c2.69-0.29,5.44-0.4,8.13-0.16c4.03,0.36,6.44,3.3,6.46,7.38c0.01,3.23,0,6.45,0.01,9.68
				c0,0.38,0.04,0.77,0.06,1.23c3.53,0,6.96,0,10.39,0C118.29,33.22,118.52,33.19,118.89,33.16z M28.59,35.9
				c-0.14,1.32-0.44,2.62-0.37,3.9c0.3,6.07,5,10.6,11.09,10.64c7.64,0.06,15.27,0,22.91,0.03c0.75,0,1.06-0.31,1.28-0.94
				c0.43-1.23,0.95-2.43,1.35-3.67c0.28-0.87,0.84-1.15,1.7-1.15c4.32,0.02,8.64,0.02,12.96,0c0.85-0.01,1.34,0.36,1.62,1.11
				c0.48,1.3,0.95,2.61,1.49,3.89c0.13,0.3,0.48,0.7,0.75,0.72c1.34,0.07,2.69,0.03,4.05,0.03c0-4.94,0-9.74,0-14.56
				C67.81,35.9,48.27,35.9,28.59,35.9z M107.58,35.91c0,4.87,0,9.63,0,14.43c0.77,0,1.46,0,2.26,0c-0.22-2.57,0.39-4.8,2.27-6.54
				c1.9-1.76,4.29-1.84,6.72-1.69c0-2.15,0-4.15,0-6.19C115.06,35.91,111.39,35.91,107.58,35.91z M118.8,44.88
				c-4.08-0.85-6.93,1.69-6.01,5.35C116.34,50.52,119.06,48.1,118.8,44.88z M73.12,50.44c-0.95,0.02-1.74,0.78-1.66,1.53
				c0.1,0.89,0.65,1.43,1.56,1.47c0.78,0.03,1.54-0.77,1.47-1.54C74.43,50.99,73.88,50.51,73.12,50.44z"/>
			<path class="st4" d="M121.8,45.67c-0.08-0.32-0.23-0.65-0.23-0.97c-0.01-11.07-0.01-22.14,0-33.21c0-0.32,0.15-0.64,0.23-0.96
				C121.8,22.24,121.8,33.95,121.8,45.67z"/>
			<path class="st5" d="M118.89,33.16c-0.37,0.03-0.6,0.06-0.83,0.06c-3.43,0-6.86,0-10.39,0c-0.02-0.46-0.06-0.84-0.06-1.23
				c0-3.23,0.01-6.45-0.01-9.68c-0.02-4.08-2.43-7.02-6.46-7.38c-2.69-0.24-5.44-0.13-8.13,0.16c-3.12,0.34-5.51,3.2-5.56,6.36
				c-0.06,3.42-0.02,6.85-0.03,10.28c0,0.43,0,0.86,0,1.39c-19.42,0-38.75,0-58.2,0c0.32-2.09,0.63-4.18,0.97-6.27
				c0.6-3.72,1.28-7.42,1.82-11.14C32.83,10.23,37.66,6,43.33,6c22.75-0.01,45.51-0.01,68.26,0c1.07,0,2.17-0.02,3.21,0.21
				c2.37,0.53,4.04,2.43,4.07,4.83C118.94,18.37,118.89,25.69,118.89,33.16z M53.17,30.52c1.92,0,3.84,0,5.75,0
				c3.72,0,7.43,0.02,11.15-0.01c2.66-0.02,4.01-1.35,4.03-3.92c0.01-2.63,0.02-5.25,0-7.88c-0.02-2.36-1.42-3.84-3.76-3.85
				c-9.79-0.02-19.58-0.03-29.37,0c-2.97,0.01-5.17,1.99-5.59,4.86c-0.41,2.78-0.8,5.57-1.16,8.36c-0.26,1.95,0.18,2.43,2.17,2.43
				C41.98,30.52,47.58,30.52,53.17,30.52z"/>
			<path class="st6" d="M28.59,35.9c19.67,0,39.22,0,58.83,0c0,4.83,0,9.62,0,14.56c-1.36,0-2.71,0.04-4.05-0.03
				c-0.27-0.01-0.62-0.42-0.75-0.72c-0.53-1.28-1-2.59-1.49-3.89c-0.28-0.76-0.77-1.12-1.62-1.11c-4.32,0.03-8.64,0.02-12.96,0
				c-0.87,0-1.42,0.28-1.7,1.15c-0.4,1.24-0.92,2.44-1.35,3.67c-0.22,0.63-0.52,0.94-1.28,0.94c-7.64-0.03-15.27,0.03-22.91-0.03
				c-6.09-0.05-10.8-4.58-11.09-10.64C28.16,38.52,28.46,37.22,28.59,35.9z"/>
			<path class="st7" d="M101.71,17.92c1.53,0.37,2.48,1.3,2.82,2.84c0,0.32,0,0.64,0,0.95c-0.01,9.5-0.02,18.99-0.03,28.49
				c-4.74,0-9.48,0-14.3,0c-0.02-0.39-0.04-0.7-0.04-1.01c0-8.96-0.01-17.92,0-26.88c0-2.33,1.08-3.85,3.06-4.38
				C96.05,17.93,98.88,17.93,101.71,17.92z M93.63,33.15c1.49,0,2.36-0.58,2.21-1.53c-0.12-0.77-0.58-1.35-1.46-1.25
				c-1.01,0.12-2.37-0.58-2.83,0.98C91.21,32.53,91.97,33.15,93.63,33.15z"/>
			<path class="st8" d="M107.58,35.91c3.81,0,7.48,0,11.25,0c0,2.04,0,4.04,0,6.19c-2.43-0.15-4.82-0.07-6.72,1.69
				c-1.88,1.74-2.49,3.98-2.27,6.54c-0.8,0-1.49,0-2.26,0C107.58,45.53,107.58,40.77,107.58,35.91z"/>
			<path class="st9" d="M118.8,44.88c0.25,3.22-2.46,5.64-6.01,5.35C111.88,46.57,114.72,44.03,118.8,44.88z"/>
			<path class="st10" d="M73.12,50.44c0.76,0.06,1.31,0.54,1.38,1.46c0.06,0.77-0.7,1.57-1.47,1.54c-0.91-0.04-1.46-0.58-1.56-1.47
				C71.38,51.22,72.18,50.46,73.12,50.44z"/>
			<path class="st11" d="M104.49,50.2c0.01-9.5,0.02-18.99,0.03-28.49c0-0.32,0-0.64,0-0.95c0.08,0.37,0.22,0.75,0.22,1.12
				c0.01,9.13,0.01,18.27,0,27.4C104.75,49.59,104.58,49.9,104.49,50.2z"/>
			<path class="st12" d="M101.71,17.92c-2.83,0-5.66,0.01-8.49,0.01c0.34-0.08,0.67-0.22,1.01-0.23c2.16-0.02,4.31-0.02,6.47,0
				C101.03,17.71,101.37,17.85,101.71,17.92z"/>
			<path class="st13" d="M53.17,30.52c-5.59,0-11.19,0-16.78,0c-1.99,0-2.43-0.48-2.17-2.43c0.37-2.79,0.75-5.58,1.16-8.36
				c0.42-2.87,2.62-4.84,5.59-4.86c9.79-0.04,19.58-0.03,29.37,0c2.34,0.01,3.74,1.49,3.76,3.85c0.02,2.63,0.01,5.25,0,7.88
				c-0.01,2.57-1.37,3.91-4.03,3.92c-3.72,0.02-7.43,0.01-11.15,0.01C57.01,30.52,55.09,30.52,53.17,30.52z M54.61,27.7
				c0.07-0.07,0.13-0.13,0.2-0.2c0-3.24,0-6.49,0-9.81c-4.81,0-9.51-0.02-14.22,0.01c-1.23,0.01-2.34,1.14-2.52,2.46
				c-0.33,2.47-0.62,4.94-0.93,7.52C42.98,27.7,48.79,27.7,54.61,27.7z M57.8,17.7c0,3.42,0,6.7,0,10.04c4.19,0,8.31,0,12.42,0
				c0.8,0,1.18-0.36,1.18-1.15c0-2.59,0-5.18,0-7.77c0-0.71-0.28-1.13-1.06-1.13C66.19,17.7,62.04,17.7,57.8,17.7z"/>
			<path class="st14" d="M93.63,33.15c-1.66,0-2.42-0.62-2.08-1.79c0.46-1.56,1.82-0.86,2.83-0.98c0.88-0.1,1.33,0.48,1.46,1.25
				C96,32.58,95.12,33.15,93.63,33.15z"/>
			<path class="st6" d="M54.61,27.7c-5.82,0-11.63,0-17.47,0c0.32-2.58,0.6-5.06,0.93-7.52c0.18-1.32,1.3-2.45,2.52-2.46
				c4.71-0.03,9.41-0.01,14.22-0.01c0,3.32,0,6.56,0,9.81C54.74,27.57,54.67,27.64,54.61,27.7z"/>
			<path class="st15" d="M57.8,17.7c4.23,0,8.39,0,12.54,0c0.77,0,1.06,0.42,1.06,1.13c0,2.59,0,5.18,0,7.77
				c0,0.79-0.38,1.15-1.18,1.15c-4.11-0.01-8.23,0-12.42,0C57.8,24.4,57.8,21.12,57.8,17.7z"/>
			<path class="st16" d="M54.61,27.7c0.07-0.07,0.13-0.13,0.2-0.2C54.74,27.57,54.67,27.64,54.61,27.7z"/>
		</g>
	</g>
</g>
<g id="tent-svgrepo-com_xA0_Image_00000101078082450166771280000014738260373824838568_">
	<g>
		<g>
			<path class="st3" d="M237,60.49c0,0.32,0,0.64,0,0.96c-0.64,0.77-1.48,0.9-2.45,0.9c-31.58-0.02-63.16-0.01-94.74-0.02
				c-0.4,0-0.9,0.12-1.17-0.08c-0.49-0.36-1.15-0.9-1.16-1.38c-0.01-0.47,0.66-1,1.1-1.43c0.16-0.15,0.55-0.13,0.81-0.08
				c1.21,0.23,1.59-0.38,1.88-1.46c3.27-11.79,6.61-23.55,9.89-35.34c0.31-1.13,0.87-1.81,1.97-2.3c9.99-4.48,19.92-9.1,29.96-13.47
				c2.11-0.92,2.88-1.96,2.63-4.18c-0.2-1.82,0.27-2.15,2.08-2.18c0.28,0.62,0.68,1.21,0.81,1.86c0.14,0.69,0.09,1.43,0.02,2.14
				c-0.1,0.86,0.28,1.23,1.04,1.58c10.57,4.75,21.12,9.55,31.69,14.31c0.96,0.43,1.48,1.02,1.76,2.05
				c2.29,8.31,4.64,16.61,6.97,24.91c1.13,4.01,2.27,8.01,3.4,12.01C234.78,59.52,236.29,58.89,237,60.49z M197.88,33.47
				c0.01,0.03,0.02,0.06,0.04,0.08c0.01,0.01,0.04,0.01,0.06,0.02C197.95,33.53,197.92,33.5,197.88,33.47
				c-0.08-0.08-0.16-0.16-0.24-0.24c-0.08-0.08-0.16-0.16-0.24-0.24c-0.08-0.08-0.16-0.16-0.24-0.24c-0.08-0.08-0.16-0.16-0.24-0.24
				c-0.08-0.08-0.16-0.16-0.24-0.24c-0.08-0.08-0.16-0.16-0.24-0.24c-0.08-0.08-0.16-0.16-0.24-0.24c-0.01-0.03-0.02-0.06-0.04-0.08
				c-0.01-0.01-0.04-0.01-0.06-0.02c0.03,0.03,0.06,0.07,0.09,0.1c0.08,0.08,0.16,0.16,0.24,0.24c0.08,0.08,0.16,0.16,0.24,0.24
				c0.08,0.08,0.16,0.16,0.24,0.24c0.08,0.08,0.16,0.16,0.24,0.24c0.08,0.08,0.16,0.16,0.24,0.24c0.08,0.08,0.16,0.16,0.24,0.24
				C197.72,33.31,197.8,33.39,197.88,33.47z M188.55,8.69c0,3.07-0.04,5.89,0.03,8.71c0.01,0.62,0.25,1.35,0.65,1.81
				c3.27,3.81,6.45,7.72,9.96,11.3c6.12,6.23,12.86,11.67,21.1,14.98c1.21,0.48,1.38,1.42,0.55,2.5c-1.43,1.86-2.89,3.71-4.34,5.56
				c-1.48,1.9-2.96,3.81-4.52,5.81c6.26,0,12.34,0,18.46,0c-0.04-0.22-0.06-0.33-0.09-0.43c-3.27-11.65-6.54-23.31-9.85-34.95
				c-0.14-0.51-0.65-1.08-1.13-1.3c-7.69-3.53-15.4-7.02-23.11-10.51C193.77,11.05,191.28,9.92,188.55,8.69z M162.3,59.39
				c-0.3-0.43-0.48-0.71-0.68-0.98c-2.64-3.4-5.29-6.79-7.93-10.19c-1.12-1.45-0.88-2.1,0.73-2.89c2.5-1.22,5.04-2.39,7.38-3.88
				c8.56-5.43,15.47-12.64,21.93-20.34c1.51-1.8,2.33-3.61,2.01-5.94c-0.09-0.66-0.01-1.35-0.01-2.03c0-1.41,0-2.82,0-4.37
				c-0.38,0.15-0.56,0.22-0.73,0.29c-10.07,4.55-20.14,9.09-30.18,13.69c-0.49,0.23-0.91,0.94-1.07,1.51
				c-2.09,7.26-4.12,14.53-6.16,21.81c-1.24,4.41-2.47,8.82-3.73,13.32C150.01,59.39,156.05,59.39,162.3,59.39z M185.74,25.31
				c-0.1-0.03-0.2-0.06-0.29-0.1c-5.92,11.37-11.84,22.74-17.81,34.22c6.23,0,12.16,0,18.11,0C185.74,48,185.74,36.65,185.74,25.31z
				 M188.87,25.17c-0.08,0.04-0.17,0.08-0.25,0.11c0,11.39,0,22.79,0,34.15c6.03,0,11.95,0,18.09,0
				C200.71,47.9,194.79,36.53,188.87,25.17z M195.68,31.57c-0.33-0.59-0.54-0.97-0.75-1.35c-0.09,0.09-0.18,0.18-0.27,0.28
				C194.95,30.81,195.25,31.12,195.68,31.57z"/>
			<path class="st5" d="M188.55,8.69c2.73,1.23,5.22,2.36,7.71,3.49c7.71,3.49,15.42,6.97,23.11,10.51c0.48,0.22,0.99,0.8,1.13,1.3
				c3.31,11.64,6.58,23.29,9.85,34.95c0.03,0.11,0.05,0.22,0.09,0.43c-6.12,0-12.2,0-18.46,0c1.56-2.01,3.04-3.91,4.52-5.81
				c1.45-1.85,2.91-3.7,4.34-5.56c0.83-1.08,0.66-2.02-0.55-2.5c-8.24-3.31-14.98-8.76-21.1-14.98c-3.52-3.58-6.69-7.49-9.96-11.3
				c-0.39-0.46-0.63-1.2-0.65-1.81C188.52,14.58,188.55,11.75,188.55,8.69z"/>
			<path class="st5" d="M162.3,59.39c-6.26,0-12.3,0-18.44,0c1.26-4.51,2.49-8.92,3.73-13.32c2.04-7.27,4.08-14.55,6.16-21.81
				c0.16-0.57,0.58-1.28,1.07-1.51c10.04-4.6,20.12-9.14,30.18-13.69c0.17-0.08,0.35-0.14,0.73-0.29c0,1.55,0,2.96,0,4.37
				c0,0.68-0.08,1.37,0.01,2.03c0.32,2.33-0.5,4.14-2.01,5.94c-6.46,7.71-13.37,14.92-21.93,20.34c-2.34,1.48-4.89,2.66-7.38,3.88
				c-1.61,0.79-1.85,1.44-0.73,2.89c2.63,3.4,5.29,6.79,7.93,10.19C161.83,58.67,162.01,58.96,162.3,59.39z"/>
			<path class="st17" d="M185.74,25.31c0,11.35,0,22.69,0,34.13c-5.95,0-11.88,0-18.11,0c5.98-11.48,11.89-22.85,17.81-34.22
				C185.55,25.24,185.65,25.28,185.74,25.31z"/>
			<path class="st6" d="M188.87,25.17c5.92,11.37,11.83,22.73,17.84,34.26c-6.14,0-12.06,0-18.09,0c0-11.36,0-22.76,0-34.15
				C188.71,25.24,188.79,25.21,188.87,25.17z"/>
			<path class="st18" d="M195.68,31.57c-0.43-0.45-0.72-0.76-1.02-1.08c0.09-0.09,0.18-0.18,0.27-0.28
				C195.14,30.6,195.35,30.98,195.68,31.57z"/>
			<path class="st18" d="M196.2,31.8c-0.03-0.03-0.06-0.07-0.09-0.1c0.02,0.01,0.05,0.01,0.06,0.02
				C196.18,31.74,196.19,31.77,196.2,31.8C196.2,31.8,196.2,31.8,196.2,31.8z"/>
			<path class="st18" d="M196.2,31.8c0.08,0.08,0.16,0.16,0.24,0.24c0,0,0,0,0,0C196.36,31.96,196.28,31.88,196.2,31.8
				C196.2,31.8,196.2,31.8,196.2,31.8z"/>
			<path class="st18" d="M196.68,32.28c-0.08-0.08-0.16-0.16-0.24-0.24c0,0,0,0,0,0C196.52,32.11,196.6,32.19,196.68,32.28
				C196.68,32.27,196.68,32.28,196.68,32.28z"/>
			<path class="st18" d="M196.92,32.52c-0.08-0.08-0.16-0.16-0.24-0.24c0,0,0,0,0,0C196.76,32.35,196.84,32.43,196.92,32.52
				L196.92,32.52z"/>
			<path class="st18" d="M196.92,32.51c0.08,0.08,0.16,0.16,0.24,0.24c0,0-0.01,0.01-0.01,0.01C197.08,32.68,197,32.6,196.92,32.51
				C196.92,32.52,196.92,32.51,196.92,32.51z"/>
			<path class="st18" d="M197.4,32.99c-0.08-0.08-0.16-0.16-0.24-0.24c0,0,0.01-0.01,0.01-0.01
				C197.24,32.83,197.32,32.91,197.4,32.99C197.4,32.99,197.4,32.99,197.4,32.99z"/>
			<path class="st18" d="M197.64,33.23c-0.08-0.08-0.16-0.16-0.24-0.24c0,0,0,0,0,0C197.48,33.07,197.56,33.15,197.64,33.23
				C197.64,33.23,197.64,33.23,197.64,33.23z"/>
			<path class="st18" d="M197.88,33.47c-0.08-0.08-0.16-0.16-0.24-0.24c0,0,0,0,0,0C197.72,33.31,197.8,33.39,197.88,33.47
				L197.88,33.47z"/>
			<path class="st18" d="M197.88,33.47c0.03,0.03,0.07,0.06,0.1,0.1c-0.02,0-0.05,0-0.06-0.02C197.9,33.53,197.89,33.5,197.88,33.47
				C197.88,33.47,197.88,33.47,197.88,33.47z"/>
		</g>
	</g>
</g>
</svg>
